<svg xmlns="http://www.w3.org/2000/svg" width="30" height="29.999" viewBox="0 0 30 29.999">
  <g id="Grupo_30471" data-name="Grupo 30471" transform="translate(-151.999 -151)">
    <rect id="Retângulo_23428" data-name="Retângulo 23428" width="29.999" height="29.999" transform="translate(152 151)" fill="none"/>
    <path id="map_FILL0_wght600_GRAD0_opsz48" d="M24.525,34.933l-9.492-3.324-6.969,2.8a1.862,1.862,0,0,1-1.862-.12,1.851,1.851,0,0,1-.9-1.682V10.261A2.062,2.062,0,0,1,5.7,9a2.533,2.533,0,0,1,1.041-.821l7.249-2.523a2.6,2.6,0,0,1,1.041-.18,4.06,4.06,0,0,1,1.041.18l9.492,3.324,6.929-2.8a2.01,2.01,0,0,1,1.882.14A1.8,1.8,0,0,1,35.3,7.978v22.63a1.577,1.577,0,0,1-.421,1.1,2.74,2.74,0,0,1-1.021.7l-7.249,2.563a2.6,2.6,0,0,1-1.041.18,3.234,3.234,0,0,1-1.041-.22Zm-.32-3.445V11.743L16.354,9.1V28.845Zm2.4,0,5.487-1.8V9.62l-5.487,2.123ZM8.464,30.928l5.487-2.083V9.1L8.464,10.9ZM26.608,11.743v0ZM13.951,9.1v0Z" transform="translate(146.699 145.686)" fill="#424242"/>
  </g>
</svg>
