<svg id="Grupo_30549" data-name="Grupo 30549" xmlns="http://www.w3.org/2000/svg" xmlns:xlink="http://www.w3.org/1999/xlink" width="56.813" height="57.035" viewBox="0 0 56.813 57.035">
  <defs>
    <clipPath id="clip-path">
      <rect id="Ret창ngulo_24397" data-name="Ret창ngulo 24397" width="56.813" height="57.035" fill="none"/>
    </clipPath>
  </defs>
  <g id="Grupo_30548" data-name="Grupo 30548" transform="translate(0 0)" clip-path="url(#clip-path)">
    <path id="Caminho_38681" data-name="Caminho 38681" d="M15.846,17.334a3.647,3.647,0,0,1,.909-.7,2.185,2.185,0,0,1,.856-.251,1.689,1.689,0,0,1,.778.135,2.212,2.212,0,0,1,.676.464,2.377,2.377,0,0,1,.5.71,1.72,1.72,0,0,1,.152.8,2.166,2.166,0,0,1-.242.862,3.6,3.6,0,0,1-.678.907l-.532.536,1.483,1.469L18.729,23.3l-4.435-4.4Zm2.176,2.159a.919.919,0,0,0,.022-1.477,1.143,1.143,0,0,0-.322-.229.789.789,0,0,0-.352-.074.882.882,0,0,0-.371.1,1.457,1.457,0,0,0-.382.288l-.532.536,1.406,1.395Z" transform="translate(-7.843 -8.99)"/>
    <path id="Caminho_38682" data-name="Caminho 38682" d="M36.95,11.256l-.981.546a.492.492,0,0,1-.309.071.57.57,0,0,1-.263-.111l-.851-.773-2.076,1.153.206,1.131a.528.528,0,0,1-.043.272.472.472,0,0,1-.218.231l-.99.55-.919-6.635,1.3-.72Zm-3.172-.969L32.441,9.072c-.09-.074-.193-.164-.306-.269s-.233-.221-.359-.347c.047.173.085.337.115.49s.053.288.068.4l.324,1.767Z" transform="translate(-16.738 -3.824)"/>
    <path id="Caminho_38683" data-name="Caminho 38683" d="M51.611,6.519l-1.286.259a.556.556,0,0,1-.567-.166L48.383,5.038a.424.424,0,0,0-.456-.135l-.361.073.456,2.265L46.6,7.527,45.368,1.4,47.36,1A4.17,4.17,0,0,1,48.52.911a2.159,2.159,0,0,1,.841.227,1.463,1.463,0,0,1,.547.489,1.929,1.929,0,0,1,.28.7,1.963,1.963,0,0,1,.034.579,1.752,1.752,0,0,1-.137.538,1.834,1.834,0,0,1-.3.479,2.126,2.126,0,0,1-.469.4,1.29,1.29,0,0,1,.566.336ZM47.94,3.882a1.489,1.489,0,0,0,.479-.173.916.916,0,0,0,.293-.271.793.793,0,0,0,.128-.343,1.181,1.181,0,0,0-.017-.388.807.807,0,0,0-.389-.578,1.248,1.248,0,0,0-.859-.063L47,2.181,47.368,4Z" transform="translate(-24.893 -0.494)"/>
    <path id="Caminho_38684" data-name="Caminho 38684" d="M67.42,6.632,66.3,6.511a.49.49,0,0,1-.293-.121.551.551,0,0,1-.15-.242l-.249-1.123L63.25,4.767l-.485,1.043a.513.513,0,0,1-.191.2.474.474,0,0,1-.311.063l-1.126-.123L64.219,0,65.694.16ZM65.39,4.008,65,2.245q-.047-.169-.095-.4t-.093-.491q-.093.253-.189.467c-.065.142-.125.265-.179.368l-.756,1.63Z" transform="translate(-33.545 0.001)"/>
    <path id="Caminho_38685" data-name="Caminho 38685" d="M84.731,8.421A3.269,3.269,0,0,1,84,9.458a2.924,2.924,0,0,1-1.013.623,3,3,0,0,1-1.2.162,3.6,3.6,0,0,1-1.3-.345l-2.2-1.018L80.9,3.21l2.2,1.019A3.572,3.572,0,0,1,84.2,5a3.012,3.012,0,0,1,.655,1.021,2.9,2.9,0,0,1,.183,1.173,3.269,3.269,0,0,1-.311,1.228M83.385,7.8a2.714,2.714,0,0,0,.242-.809,1.792,1.792,0,0,0-.048-.719,1.5,1.5,0,0,0-.333-.593,1.86,1.86,0,0,0-.615-.438l-.879-.407L80.066,8.48l.88.407a1.858,1.858,0,0,0,.732.185,1.5,1.5,0,0,0,.667-.13,1.792,1.792,0,0,0,.579-.43,2.732,2.732,0,0,0,.461-.712" transform="translate(-42.949 -1.761)"/>
    <path id="Caminho_38686" data-name="Caminho 38686" d="M96.1,22.958l-.821-.767a.491.491,0,0,1-.162-.272.552.552,0,0,1,.025-.284l.474-1.048-1.737-1.621-1.012.544a.526.526,0,0,1-.271.043.477.477,0,0,1-.287-.136l-.828-.772,6.03-2.917L98.6,16.741Zm-.054-3.317L96.794,18q.064-.162.162-.375c.065-.14.139-.29.219-.449q-.225.148-.431.26t-.363.189l-1.581.852Z" transform="translate(-50.196 -8.63)"/>
    <path id="Caminho_38687" data-name="Caminho 38687" d="M2.9,59a3.264,3.264,0,0,1-1.23-.32,2.918,2.918,0,0,1-.942-.725A2.989,2.989,0,0,1,.15,56.887a3.63,3.63,0,0,1-.14-1.34l.168-2.421,6.232.434-.168,2.421a3.588,3.588,0,0,1-.328,1.307,3.035,3.035,0,0,1-.721.975,2.9,2.9,0,0,1-1.031.588A3.266,3.266,0,0,1,2.9,59m.1-1.479a2.741,2.741,0,0,0,.843-.062,1.779,1.779,0,0,0,.654-.3,1.491,1.491,0,0,0,.436-.522,1.871,1.871,0,0,0,.19-.73l.067-.967-4.007-.279-.067.967a1.868,1.868,0,0,0,.088.75,1.492,1.492,0,0,0,.359.577,1.784,1.784,0,0,0,.607.388,2.744,2.744,0,0,0,.83.178" transform="translate(0 -29.15)"/>
    <path id="Caminho_38688" data-name="Caminho 38688" d="M5.809,71.783l-1.421.323.434,1.915-1.045.237-.435-1.915-1.451.329.568,2.5-1.087.246L.481,71.5l6.092-1.382.89,3.921-1.087.247Z" transform="translate(-0.264 -38.471)"/>
    <path id="Caminho_38689" data-name="Caminho 38689" d="M14.184,90.294,13,91.14l1.14,1.6-.873.622-1.139-1.6-1.212.863L12.4,94.713l-.908.647L9.158,92.084l5.089-3.624,2.332,3.276-.908.646Z" transform="translate(-5.025 -48.537)"/>
    <path id="Caminho_38690" data-name="Caminho 38690" d="M28.918,102.621l-3.661,5.062-1.035-.749,2.106-2.911c.048-.067.1-.139.163-.215s.125-.152.193-.226l-3.227,1.629a.542.542,0,0,1-.3.063.58.58,0,0,1-.286-.112l-.161-.116a.572.572,0,0,1-.2-.237.539.539,0,0,1-.035-.306l.542-3.582c-.053.089-.107.174-.16.258s-.1.158-.153.225L20.6,104.315l-1.035-.749L23.228,98.5l.9.648c.051.037.095.071.131.1a.434.434,0,0,1,.087.095.3.3,0,0,1,.043.113.511.511,0,0,1,0,.154l-.554,3.51q-.026.182-.065.371t-.088.381q.169-.11.34-.21t.338-.178l3.148-1.617a.5.5,0,0,1,.146-.051.29.29,0,0,1,.12,0,.433.433,0,0,1,.117.053c.04.026.086.056.137.093Z" transform="translate(-10.736 -54.049)"/>
    <path id="Caminho_38691" data-name="Caminho 38691" d="M43.135,110.442l-.447,1.387,1.868.6-.329,1.02-1.869-.6-.456,1.416,2.44.787L44,116.113l-3.827-1.234,1.916-5.946,3.828,1.234-.342,1.061Z" transform="translate(-22.042 -59.771)"/>
    <path id="Caminho_38692" data-name="Caminho 38692" d="M61.155,118.6l-1.311-.038a.555.555,0,0,1-.515-.289l-.984-1.843a.507.507,0,0,0-.158-.174.5.5,0,0,0-.255-.061l-.368-.01L57.5,118.5l-1.448-.042.181-6.244,2.031.059a4.18,4.18,0,0,1,1.151.173,2.158,2.158,0,0,1,.769.41,1.474,1.474,0,0,1,.422.6,2.059,2.059,0,0,1,.018,1.312,1.773,1.773,0,0,1-.254.493,1.839,1.839,0,0,1-.4.4,2.094,2.094,0,0,1-.547.28,1.282,1.282,0,0,1,.476.455Zm-2.98-3.4a1.48,1.48,0,0,0,.505-.061.906.906,0,0,0,.347-.2.808.808,0,0,0,.2-.306,1.2,1.2,0,0,0,.071-.382.8.8,0,0,0-.25-.65,1.25,1.25,0,0,0-.823-.256l-.583-.017-.054,1.852Z" transform="translate(-30.752 -61.57)"/>
    <path id="Caminho_38693" data-name="Caminho 38693" d="M74.4,113.012l2.142-.586.7,2.544a3.262,3.262,0,0,1-.852.761,3.993,3.993,0,0,1-1.052.452,3.883,3.883,0,0,1-1.418.137,3.232,3.232,0,0,1-1.221-.36,2.93,2.93,0,0,1-.937-.793,3.249,3.249,0,0,1-.57-1.162,3.46,3.46,0,0,1-.116-1.3,2.9,2.9,0,0,1,.372-1.149,3.007,3.007,0,0,1,.831-.912,3.767,3.767,0,0,1,1.255-.588,4.018,4.018,0,0,1,.724-.131,3.572,3.572,0,0,1,.657,0,2.9,2.9,0,0,1,.581.116,2.867,2.867,0,0,1,.5.209l-.236.727a.4.4,0,0,1-.2.246.449.449,0,0,1-.344.014c-.128-.036-.248-.065-.359-.086a1.9,1.9,0,0,0-.333-.036,2,2,0,0,0-.341.022,3.26,3.26,0,0,0-.386.083,1.8,1.8,0,0,0-.668.332,1.573,1.573,0,0,0-.429.538,1.828,1.828,0,0,0-.176.7,2.517,2.517,0,0,0,.1.82,2.629,2.629,0,0,0,.365.816,1.834,1.834,0,0,0,.547.526,1.657,1.657,0,0,0,.686.232,2.069,2.069,0,0,0,.783-.07,2.042,2.042,0,0,0,.444-.175,2.607,2.607,0,0,0,.362-.241l-.25-.913-.6.162a.3.3,0,0,1-.227-.014.249.249,0,0,1-.123-.158Z" transform="translate(-38.984 -60.309)"/>
    <path id="Caminho_38694" data-name="Caminho 38694" d="M86.693,104.087l.761,1.243,1.674-1.025.56.914-1.674,1.026.777,1.268,2.187-1.339.582.951-3.43,2.1L84.867,103.9l3.43-2.1.582.951Zm1.168-2.494-.819.5a.779.779,0,0,1-.176.075.474.474,0,0,1-.286-.023l-.357-.173-.064-.026a.514.514,0,0,1-.06-.028.452.452,0,0,1,0,.066q0,.033-.005.069l-.009.4a.476.476,0,0,1-.109.266.772.772,0,0,1-.147.122l-.782.479.269-1.563,1.032-.631Z" transform="translate(-46.566 -55.485)"/>
    <path id="Caminho_38695" data-name="Caminho 38695" d="M98.988,91.427l4.662,4.158-.5.563a.655.655,0,0,1-.227.174.687.687,0,0,1-.29.043l-4.741-.281q.136.1.258.2c.08.066.155.13.223.191l2.5,2.228-.85.954L95.359,95.5l.508-.57a1.1,1.1,0,0,1,.112-.113.4.4,0,0,1,.1-.065.413.413,0,0,1,.116-.029,1.144,1.144,0,0,1,.158,0l4.778.28c-.1-.07-.193-.139-.281-.211s-.169-.139-.244-.206l-2.467-2.2Z" transform="translate(-52.323 -50.165)"/>
    <path id="Caminho_38696" data-name="Caminho 38696" d="M112.413,80.719a.288.288,0,0,1,.06-.086.279.279,0,0,1,.1-.064l.786-.279a2.385,2.385,0,0,1,.3,1.166,3.318,3.318,0,0,1-.316,1.33,3.209,3.209,0,0,1-.74,1.067,2.745,2.745,0,0,1-1,.6,2.928,2.928,0,0,1-1.169.14,3.744,3.744,0,0,1-1.247-.324,3.52,3.52,0,0,1-1.081-.729,2.973,2.973,0,0,1-.663-.994,2.862,2.862,0,0,1-.2-1.169,3.291,3.291,0,0,1,.3-1.252,3.478,3.478,0,0,1,.326-.58,3.311,3.311,0,0,1,.393-.461,2.679,2.679,0,0,1,.443-.348,2.6,2.6,0,0,1,.469-.232l.4.713a.616.616,0,0,1,.055.146.294.294,0,0,1-.028.184.308.308,0,0,1-.09.12c-.04.032-.085.065-.136.1l-.166.111a1.213,1.213,0,0,0-.187.156,1.79,1.79,0,0,0-.2.236,2.048,2.048,0,0,0-.192.348,1.587,1.587,0,0,0-.146.655,1.421,1.421,0,0,0,.146.628,1.786,1.786,0,0,0,.436.56,2.773,2.773,0,0,0,.726.451,2.556,2.556,0,0,0,.833.227,1.881,1.881,0,0,0,.718-.07,1.515,1.515,0,0,0,.568-.323,1.568,1.568,0,0,0,.383-.534,3.109,3.109,0,0,0,.129-.337,1.691,1.691,0,0,0,.065-.3,1.235,1.235,0,0,0,0-.292,1.635,1.635,0,0,0-.072-.309.531.531,0,0,1-.019-.13.3.3,0,0,1,.025-.125" transform="translate(-58.839 -43.075)"/>
    <rect id="Ret창ngulo_24396" data-name="Ret창ngulo 24396" width="1.458" height="6.247" transform="matrix(0.194, -0.981, 0.981, 0.194, 49.899, 33.531)"/>
    <path id="Caminho_38697" data-name="Caminho 38697" d="M117.818,53.589l.049,1.122a.488.488,0,0,1-.074.308.555.555,0,0,1-.218.186l-1.072.415.1,2.373,1.1.321a.521.521,0,0,1,.224.16.474.474,0,0,1,.109.3l.049,1.131-6.346-2.145-.064-1.482Zm-2.286,2.4-1.684.652q-.16.072-.377.154c-.145.055-.3.111-.471.166.176.035.339.074.49.116s.281.082.392.12l1.725.5Z" transform="translate(-61.279 -29.404)"/>
  </g>
</svg>
