<svg xmlns="http://www.w3.org/2000/svg" width="30" height="30" viewBox="0 0 30 30">
  <g id="Grupo_30472" data-name="Grupo 30472" transform="translate(-261 -151)">
    <rect id="Retângulo_23431" data-name="Retângulo 23431" width="30" height="30" transform="translate(261 151)" fill="none"/>
    <path id="settings_FILL0_wght600_GRAD0_opsz48" d="M20.882,33.25H15.888a1.588,1.588,0,0,1-.977-.326,1.251,1.251,0,0,1-.507-.869l-.543-3.51a8.864,8.864,0,0,1-1.248-.6,7.483,7.483,0,0,1-1.14-.778L8.252,28.69a1.284,1.284,0,0,1-1.031.072,1.467,1.467,0,0,1-.814-.688L3.873,23.552a1.265,1.265,0,0,1-.163-1,1.629,1.629,0,0,1,.561-.887l3-2.171a2.773,2.773,0,0,1-.09-.615q-.018-.362-.018-.615t.018-.615a2.773,2.773,0,0,1,.09-.615l-3-2.207a1.468,1.468,0,0,1-.561-.869,1.2,1.2,0,0,1,.163-.977L6.406,8.461a1.5,1.5,0,0,1,.814-.651,1.386,1.386,0,0,1,1.031.036l3.257,1.52a6.985,6.985,0,0,1,1.122-.76,6.632,6.632,0,0,1,1.23-.543L14.4,4.48a1.314,1.314,0,0,1,.507-.887,1.534,1.534,0,0,1,.977-.344h4.994a1.534,1.534,0,0,1,.977.344,1.314,1.314,0,0,1,.507.887l.543,3.546a11.92,11.92,0,0,1,1.248.561,5.11,5.11,0,0,1,1.14.778l3.221-1.52a1.45,1.45,0,0,1,1.031-.054,1.39,1.39,0,0,1,.814.669l2.569,4.487a1.3,1.3,0,0,1,.163,1.013,1.418,1.418,0,0,1-.6.869l-3,2.135q.036.29.072.651t.036.651a6.082,6.082,0,0,1-.036.633q-.036.344-.072.633l3,2.135a1.629,1.629,0,0,1,.561.887,1.359,1.359,0,0,1-.127,1l-2.569,4.524a1.467,1.467,0,0,1-.814.688,1.284,1.284,0,0,1-1.031-.072L25.26,27.17a9.709,9.709,0,0,1-1.1.8,5.017,5.017,0,0,1-1.248.579l-.543,3.51a1.251,1.251,0,0,1-.507.869,1.588,1.588,0,0,1-.977.326ZM18.348,22.973a4.7,4.7,0,0,0,4.7-4.7,4.7,4.7,0,0,0-4.7-4.7,4.7,4.7,0,0,0-4.7,4.7,4.7,4.7,0,0,0,4.7,4.7Zm0-2.171a2.424,2.424,0,0,1-1.809-.742,2.579,2.579,0,0,1,0-3.583,2.54,2.54,0,1,1,3.6,3.583A2.441,2.441,0,0,1,18.348,20.8ZM18.385,18.268ZM16.973,30.391H19.8l.507-4.053a9.01,9.01,0,0,0,2.334-.9,8.36,8.36,0,0,0,1.972-1.52l3.836,1.665,1.267-2.352-3.365-2.461q.145-.615.235-1.23a8.7,8.7,0,0,0,.09-1.267A10.835,10.835,0,0,0,26.6,17a7.433,7.433,0,0,0-.253-1.23l3.365-2.461-1.267-2.352-3.836,1.665a8.069,8.069,0,0,0-1.918-1.647,5.688,5.688,0,0,0-2.388-.814L19.8,6.145H16.973l-.507,4.017a6.929,6.929,0,0,0-2.37.869,8.659,8.659,0,0,0-1.972,1.592l-3.8-1.665L7.058,13.31l3.329,2.425q-.145.651-.235,1.267a8.7,8.7,0,0,0-.09,1.267,9.073,9.073,0,0,0,.09,1.285q.09.633.235,1.248L7.058,23.226l1.267,2.352,3.8-1.665a9.551,9.551,0,0,0,2.008,1.538,8.645,8.645,0,0,0,2.334.923Z" transform="translate(257.543 147.75)" fill="#424242"/>
  </g>
</svg>
