<svg xmlns="http://www.w3.org/2000/svg" width="30" height="29.999" viewBox="0 0 30 29.999">
  <g id="Grupo_30474" data-name="Grupo 30474" transform="translate(-23.999 -184)">
    <rect id="Retângulo_23429" data-name="Retângulo 23429" width="29.999" height="29.999" transform="translate(24 184)" fill="none"/>
    <path id="conversion_path_FILL0_wght600_GRAD0_opsz48" d="M28.737,32.443a4.41,4.41,0,0,1-2.924-1.017,4.22,4.22,0,0,1-1.507-2.4h-7.3a5.469,5.469,0,0,1-5.666-5.666A5.469,5.469,0,0,1,17.006,17.7h2.8a3.168,3.168,0,0,0,3.269-3.269A3.168,3.168,0,0,0,19.8,11.161H12.43a4.666,4.666,0,0,1-1.562,2.4,4.34,4.34,0,0,1-2.905,1.017,4.449,4.449,0,0,1-3.269-1.344A4.449,4.449,0,0,1,3.35,9.962,4.449,4.449,0,0,1,4.694,6.694,4.449,4.449,0,0,1,7.962,5.35a4.34,4.34,0,0,1,2.905,1.017,4.666,4.666,0,0,1,1.562,2.4H19.8a5.469,5.469,0,0,1,5.666,5.666A5.469,5.469,0,0,1,19.8,20.1h-2.8a3.269,3.269,0,1,0,0,6.537h7.3a4.451,4.451,0,0,1,1.525-2.4,4.34,4.34,0,0,1,2.905-1.017A4.623,4.623,0,0,1,32.005,31.1,4.449,4.449,0,0,1,28.737,32.443ZM7.962,11.924A1.923,1.923,0,0,0,9.924,9.962,1.923,1.923,0,0,0,7.962,8,1.923,1.923,0,0,0,6,9.962a1.923,1.923,0,0,0,1.961,1.961Z" transform="translate(20.649 179.813)" fill="#424242"/>
  </g>
</svg>
