<svg xmlns="http://www.w3.org/2000/svg" width="30" height="30" viewBox="0 0 30 30">
  <g id="Grupo_30540" data-name="Grupo 30540" transform="translate(-738 -47)">
    <rect id="Retângulo_23789" data-name="Retângulo 23789" width="30" height="30" transform="translate(738 47)" fill="none" opacity="0.25"/>
    <path id="notifications_FILL0_wght600_GRAD0_opsz48" d="M8.149,27.084A1.325,1.325,0,0,1,6.8,25.735a1.25,1.25,0,0,1,.388-.945,1.337,1.337,0,0,1,.961-.371H9.8V14.6A8.939,8.939,0,0,1,11.54,9.255,7.54,7.54,0,0,1,16.178,6.2V5.325a1.98,1.98,0,0,1,.658-1.518,2.33,2.33,0,0,1,3.137,0,1.98,1.98,0,0,1,.658,1.518V6.2A7.677,7.677,0,0,1,25.3,9.255,8.825,8.825,0,0,1,27.075,14.6v9.817h1.619a1.322,1.322,0,0,1,.945.388,1.278,1.278,0,0,1,.4.961,1.225,1.225,0,0,1-.4.945,1.354,1.354,0,0,1-.945.371ZM18.4,16.761Zm0,14.439a2.778,2.778,0,0,1-2.007-.843,2.7,2.7,0,0,1-.86-1.99h5.735a2.705,2.705,0,0,1-.843,2.007A2.789,2.789,0,0,1,18.4,31.2Zm-5.937-6.781H24.376V14.6a5.861,5.861,0,0,0-1.7-4.267,5.651,5.651,0,0,0-4.2-1.737,5.933,5.933,0,0,0-6,6Z" transform="translate(734.578 44.8)" fill="#fff"/>
  </g>
</svg>
