<svg xmlns="http://www.w3.org/2000/svg" width="30" height="30" viewBox="0 0 30 30">
  <g id="Grupo_30538" data-name="Grupo 30538" transform="translate(-698 -53)">
    <rect id="Retângulo_23784" data-name="Retângulo 23784" width="30" height="30" transform="translate(698 53)" fill="none" opacity="0.25"/>
    <path id="search_FILL0_wght600_GRAD0_opsz48" d="M30.665,32.951l-9.129-9.09a8.52,8.52,0,0,1-2.647,1.458,9.8,9.8,0,0,1-3.26.537,9.9,9.9,0,0,1-7.307-2.992A9.86,9.86,0,0,1,5.35,15.653,9.828,9.828,0,0,1,8.342,8.442,9.828,9.828,0,0,1,15.553,5.45a9.747,9.747,0,0,1,7.211,2.992,9.892,9.892,0,0,1,2.953,7.211,9.8,9.8,0,0,1-1.995,6.022l9.167,9.09a1.493,1.493,0,0,1,.46,1.093,1.439,1.439,0,0,1-.5,1.093,1.515,1.515,0,0,1-1.112.46,1.393,1.393,0,0,1-1.074-.46ZM15.591,22.787a6.81,6.81,0,0,0,5.025-2.09,6.905,6.905,0,0,0,2.071-5.044,6.905,6.905,0,0,0-2.071-5.044,6.81,6.81,0,0,0-5.025-2.09,6.963,6.963,0,0,0-5.121,2.09,6.873,6.873,0,0,0-2.09,5.044,6.873,6.873,0,0,0,2.09,5.044A6.963,6.963,0,0,0,15.591,22.787Z" transform="translate(693.65 48.551)" fill="#fff"/>
  </g>
</svg>
