<svg xmlns="http://www.w3.org/2000/svg" width="30" height="30" viewBox="0 0 30 30">
  <g id="Grupo_30470" data-name="Grupo 30470" transform="translate(-228 -151)">
    <rect id="Retângulo_23430" data-name="Retângulo 23430" width="30" height="30" transform="translate(228 151)" fill="none"/>
    <path id="group_FILL0_wght600_GRAD0_opsz48" d="M2.481,28.3a1.219,1.219,0,0,1-.877-.338A1.141,1.141,0,0,1,1.25,27.1V24.946a3.962,3.962,0,0,1,.615-2.169,3.826,3.826,0,0,1,1.723-1.462,25.846,25.846,0,0,1,4.123-1.431,16.185,16.185,0,0,1,3.815-.446,16.675,16.675,0,0,1,3.831.431,23.446,23.446,0,0,1,4.108,1.446,3.884,3.884,0,0,1,2.369,3.631V27.1a1.141,1.141,0,0,1-.354.862,1.219,1.219,0,0,1-.877.338Zm20.585,0a1.006,1.006,0,0,0,.569-.431,1.44,1.44,0,0,0,.231-.831V25.008A5.406,5.406,0,0,0,22.9,21.7a8.787,8.787,0,0,0-2.631-2.292,32.713,32.713,0,0,1,3.769.738,13.631,13.631,0,0,1,2.877,1.046,4.539,4.539,0,0,1,1.708,1.585,4.15,4.15,0,0,1,.631,2.262V27.1a1.141,1.141,0,0,1-.354.862,1.219,1.219,0,0,1-.877.338ZM11.527,17.562A4.637,4.637,0,0,1,6.7,12.731,4.614,4.614,0,0,1,11.527,7.9a4.59,4.59,0,0,1,4.831,4.8,4.776,4.776,0,0,1-1.338,3.508A4.694,4.694,0,0,1,11.527,17.562ZM23.25,12.7a4.639,4.639,0,0,1-4.831,4.862,5.061,5.061,0,0,1-.769-.062,4.676,4.676,0,0,1-.769-.185,5.385,5.385,0,0,0,1.154-1.985,8.2,8.2,0,0,0,.385-2.6,7.914,7.914,0,0,0-.385-2.569,6.069,6.069,0,0,0-1.154-2.015,3.862,3.862,0,0,1,.754-.185,5.365,5.365,0,0,1,.785-.062,4.635,4.635,0,0,1,4.831,4.8ZM3.681,25.869H19.373v-.862a1.714,1.714,0,0,0-.292-.923,1.428,1.428,0,0,0-.723-.615,20.16,20.16,0,0,0-3.6-1.277,14.854,14.854,0,0,0-3.231-.323,15.4,15.4,0,0,0-3.231.323,18.8,18.8,0,0,0-3.631,1.277,1.454,1.454,0,0,0-.692.615,1.714,1.714,0,0,0-.292.923Zm7.846-10.554a2.492,2.492,0,0,0,1.862-.738,2.533,2.533,0,0,0,.723-1.846,2.477,2.477,0,0,0-2.585-2.585,2.533,2.533,0,0,0-1.846.723A2.454,2.454,0,0,0,8.942,12.7a2.543,2.543,0,0,0,.738,1.877A2.5,2.5,0,0,0,11.527,15.315ZM11.527,12.7ZM11.527,21.869Z" transform="translate(227.75 147.9)" fill="#424242"/>
  </g>
</svg>
