<svg xmlns="http://www.w3.org/2000/svg" width="30" height="29.999" viewBox="0 0 30 29.999">
  <g id="Grupo_30473" data-name="Grupo 30473" transform="translate(-296.999 -151)">
    <rect id="Retângulo_23432" data-name="Retângulo 23432" width="29.999" height="29.999" transform="translate(297 151)" fill="none"/>
    <path id="help_FILL0_wght600_GRAD0_opsz48" d="M18.39,26.7a1.46,1.46,0,0,0,1.068-.452,1.5,1.5,0,0,0,.452-1.1,1.545,1.545,0,0,0-1.52-1.52,1.5,1.5,0,0,0-1.1.452,1.46,1.46,0,0,0-.452,1.068A1.545,1.545,0,0,0,18.39,26.7Zm-.036-14.62a2.492,2.492,0,0,1,1.755.615,1.982,1.982,0,0,1,.669,1.52,2.625,2.625,0,0,1-.38,1.339,5.28,5.28,0,0,1-1.285,1.375,7.749,7.749,0,0,0-1.52,1.791,3.416,3.416,0,0,0-.579,1.719.843.843,0,0,0,.362.706,1.3,1.3,0,0,0,.8.271,1.248,1.248,0,0,0,.832-.308,1.623,1.623,0,0,0,.507-.814,2.9,2.9,0,0,1,.47-1.212,5.82,5.82,0,0,1,1.049-1.1,5.868,5.868,0,0,0,1.5-1.755,4.378,4.378,0,0,0,.489-2.081,4.222,4.222,0,0,0-1.212-3.148A4.463,4.463,0,0,0,18.535,9.8a5.859,5.859,0,0,0-2.624.579A5.658,5.658,0,0,0,13.9,12.043a1.07,1.07,0,0,0-.235.9,1.038,1.038,0,0,0,.416.724,1.145,1.145,0,0,0,.959.217,1.478,1.478,0,0,0,.887-.579,3.081,3.081,0,0,1,1.068-.9,2.925,2.925,0,0,1,1.357-.326Zm-.072,21.17a15.117,15.117,0,0,1-5.88-1.14,14.608,14.608,0,0,1-4.759-3.166,14.85,14.85,0,0,1-3.184-4.759A15,15,0,0,1,3.3,18.268,14.92,14.92,0,0,1,7.642,7.629a15.1,15.1,0,0,1,4.759-3.2,14.712,14.712,0,0,1,5.88-1.176,14.622,14.622,0,0,1,5.844,1.176,15.1,15.1,0,0,1,4.759,3.2A15.352,15.352,0,0,1,32.1,12.387a14.52,14.52,0,0,1,1.194,5.88A14.61,14.61,0,0,1,32.1,24.184a15.352,15.352,0,0,1-3.221,4.759,14.608,14.608,0,0,1-4.759,3.166A15.024,15.024,0,0,1,18.281,33.249ZM18.281,17.87Zm0,12.521a11.683,11.683,0,0,0,8.576-3.546A11.683,11.683,0,0,0,30.4,18.268a11.7,11.7,0,0,0-3.546-8.558,11.653,11.653,0,0,0-8.576-3.564A11.6,11.6,0,0,0,9.651,9.709a11.793,11.793,0,0,0-3.492,8.558,11.775,11.775,0,0,0,3.492,8.576A11.632,11.632,0,0,0,18.281,30.39Z" transform="translate(293.699 147.75)" fill="#424242"/>
  </g>
</svg>
