<svg xmlns="http://www.w3.org/2000/svg" width="24" height="24" viewBox="0 0 24 24">
  <g id="Grupo_30484" data-name="Grupo 30484" transform="translate(-691 -119)">
    <rect id="Retângulo_24294" data-name="Retângulo 24294" width="24" height="24" transform="translate(691 119)" fill="none" opacity="0.25"/>
    <path id="info_FILL0_wght600_GRAD0_opsz48" d="M14.366,19.73a.945.945,0,0,0,.677-.265.91.91,0,0,0,.279-.69V14.131a.891.891,0,0,0-.279-.65.955.955,0,0,0-1.632.677V18.8a.878.878,0,0,0,.279.663A.945.945,0,0,0,14.366,19.73Zm-.08-8.28a1.086,1.086,0,0,0,.783-.292,1.016,1.016,0,0,0,.305-.77,1.105,1.105,0,0,0-.305-.8,1.122,1.122,0,0,0-1.566,0,1.105,1.105,0,0,0-.305.8,1.016,1.016,0,0,0,.305.77A1.086,1.086,0,0,0,14.287,11.45Zm0,13.8a11.155,11.155,0,0,1-4.339-.836A10.64,10.64,0,0,1,4.136,18.6,11.155,11.155,0,0,1,3.3,14.263a11.184,11.184,0,0,1,.836-4.326,10.529,10.529,0,0,1,2.322-3.49,11.187,11.187,0,0,1,3.49-2.335,10.856,10.856,0,0,1,4.339-.862,11.026,11.026,0,0,1,7.815,3.2,11.025,11.025,0,0,1,2.335,3.476,10.856,10.856,0,0,1,.862,4.339,10.856,10.856,0,0,1-.862,4.339,11.187,11.187,0,0,1-2.335,3.49,10.53,10.53,0,0,1-3.49,2.322A11.184,11.184,0,0,1,14.287,25.25ZM14.287,14.263Zm0,8.89a8.581,8.581,0,0,0,6.276-2.6,8.546,8.546,0,0,0,2.614-6.29,8.559,8.559,0,0,0-2.614-6.276,8.559,8.559,0,0,0-6.276-2.614A8.559,8.559,0,0,0,8.01,7.987,8.559,8.559,0,0,0,5.4,14.263a8.546,8.546,0,0,0,2.614,6.29A8.581,8.581,0,0,0,14.287,23.154Z" transform="translate(688.7 116.75)" fill="#fff"/>
  </g>
</svg>
